<?xml version="1.0" encoding="UTF-8" standalone="no"?>
<!DOCTYPE svg PUBLIC "-//W3C//DTD SVG 1.1//EN"
 "http://www.w3.org/Graphics/SVG/1.1/DTD/svg11.dtd">
<!-- Generated by graphviz version 2.43.0 (0)
 -->
<!-- Title: G Pages: 1 -->
<svg width="1090pt" height="296pt"
 viewBox="0.00 0.00 1090.00 296.00" xmlns="http://www.w3.org/2000/svg" xmlns:xlink="http://www.w3.org/1999/xlink">
<g id="graph0" class="graph" transform="scale(1 1) rotate(0) translate(4 292)">
<title>G</title>
<polygon fill="white" stroke="transparent" points="-4,4 -4,-292 1086,-292 1086,4 -4,4"/>
<!-- bass -->
<g id="node1" class="node">
<title>bass</title>
<path fill="none" stroke="black" d="M12,-142.5C12,-142.5 131,-142.5 131,-142.5 137,-142.5 143,-148.5 143,-154.5 143,-154.5 143,-166.5 143,-166.5 143,-172.5 137,-178.5 131,-178.5 131,-178.5 12,-178.5 12,-178.5 6,-178.5 0,-172.5 0,-166.5 0,-166.5 0,-154.5 0,-154.5 0,-148.5 6,-142.5 12,-142.5"/>
<text text-anchor="middle" x="10.5" y="-156.8" font-family="Times,serif" font-size="14.00"> </text>
<polyline fill="none" stroke="black" points="21,-142.5 21,-178.5 "/>
<text text-anchor="middle" x="49" y="-156.8" font-family="Times,serif" font-size="14.00">BASS</text>
<polyline fill="none" stroke="black" points="77,-142.5 77,-178.5 "/>
<text text-anchor="middle" x="110" y="-156.8" font-family="Times,serif" font-size="14.00">AUDIO</text>
</g>
<!-- delay -->
<g id="node2" class="node">
<title>delay</title>
<path fill="none" stroke="black" d="M191,-241.5C191,-241.5 355,-241.5 355,-241.5 361,-241.5 367,-247.5 367,-253.5 367,-253.5 367,-275.5 367,-275.5 367,-281.5 361,-287.5 355,-287.5 355,-287.5 191,-287.5 191,-287.5 185,-287.5 179,-281.5 179,-275.5 179,-275.5 179,-253.5 179,-253.5 179,-247.5 185,-241.5 191,-241.5"/>
<text text-anchor="middle" x="211" y="-260.8" font-family="Times,serif" font-size="14.00">INPUT</text>
<polyline fill="none" stroke="black" points="243,-241.5 243,-287.5 "/>
<text text-anchor="middle" x="276" y="-260.8" font-family="Times,serif" font-size="14.00">DELAY</text>
<polyline fill="none" stroke="black" points="309,-241.5 309,-287.5 "/>
<text text-anchor="middle" x="338" y="-272.3" font-family="Times,serif" font-size="14.00">OUT1</text>
<polyline fill="none" stroke="black" points="309,-264.5 367,-264.5 "/>
<text text-anchor="middle" x="338" y="-249.3" font-family="Times,serif" font-size="14.00">OUT2</text>
</g>
<!-- bass&#45;&gt;delay -->
<g id="edge21" class="edge">
<title>bass:e&#45;&gt;delay:w</title>
<path fill="none" stroke="black" stroke-width="2" d="M143,-160.5C143,-160.5 166.77,-229.16 175.68,-254.9"/>
<polygon fill="black" stroke="black" stroke-width="2" points="172.42,-256.2 179,-264.5 179.04,-253.91 172.42,-256.2"/>
</g>
<!-- harm -->
<g id="node4" class="node">
<title>harm</title>
<path fill="none" stroke="black" d="M192.5,-164.5C192.5,-164.5 353.5,-164.5 353.5,-164.5 359.5,-164.5 365.5,-170.5 365.5,-176.5 365.5,-176.5 365.5,-198.5 365.5,-198.5 365.5,-204.5 359.5,-210.5 353.5,-210.5 353.5,-210.5 192.5,-210.5 192.5,-210.5 186.5,-210.5 180.5,-204.5 180.5,-198.5 180.5,-198.5 180.5,-176.5 180.5,-176.5 180.5,-170.5 186.5,-164.5 192.5,-164.5"/>
<text text-anchor="middle" x="212.5" y="-183.8" font-family="Times,serif" font-size="14.00">INPUT</text>
<polyline fill="none" stroke="black" points="244.5,-164.5 244.5,-210.5 "/>
<text text-anchor="middle" x="276" y="-183.8" font-family="Times,serif" font-size="14.00">HARM</text>
<polyline fill="none" stroke="black" points="307.5,-164.5 307.5,-210.5 "/>
<text text-anchor="middle" x="336.5" y="-195.3" font-family="Times,serif" font-size="14.00">OUT1</text>
<polyline fill="none" stroke="black" points="307.5,-187.5 365.5,-187.5 "/>
<text text-anchor="middle" x="336.5" y="-172.3" font-family="Times,serif" font-size="14.00">OUT2</text>
</g>
<!-- bass&#45;&gt;harm -->
<g id="edge22" class="edge">
<title>bass:e&#45;&gt;harm:w</title>
<path fill="none" stroke="black" stroke-width="2" d="M143,-160.5C143,-160.5 160.02,-173.26 170.65,-181.24"/>
<polygon fill="black" stroke="black" stroke-width="2" points="168.9,-184.3 179,-187.5 173.1,-178.7 168.9,-184.3"/>
</g>
<!-- infreverbspat -->
<g id="node7" class="node">
<title>infreverbspat</title>
<path fill="none" stroke="black" d="M415,-111.5C415,-111.5 655,-111.5 655,-111.5 661,-111.5 667,-117.5 667,-123.5 667,-123.5 667,-145.5 667,-145.5 667,-151.5 661,-157.5 655,-157.5 655,-157.5 415,-157.5 415,-157.5 409,-157.5 403,-151.5 403,-145.5 403,-145.5 403,-123.5 403,-123.5 403,-117.5 409,-111.5 415,-111.5"/>
<text text-anchor="middle" x="435" y="-130.8" font-family="Times,serif" font-size="14.00">INPUT</text>
<polyline fill="none" stroke="black" points="467,-111.5 467,-157.5 "/>
<text text-anchor="middle" x="538" y="-130.8" font-family="Times,serif" font-size="14.00">INFREVERBSPAT</text>
<polyline fill="none" stroke="black" points="609,-111.5 609,-157.5 "/>
<text text-anchor="middle" x="638" y="-142.3" font-family="Times,serif" font-size="14.00">OUT1</text>
<polyline fill="none" stroke="black" points="609,-134.5 667,-134.5 "/>
<text text-anchor="middle" x="638" y="-119.3" font-family="Times,serif" font-size="14.00">OUT2</text>
</g>
<!-- bass&#45;&gt;infreverbspat -->
<g id="edge23" class="edge">
<title>bass:e&#45;&gt;infreverbspat:w</title>
<path fill="none" stroke="black" stroke-width="2" d="M143,-160.5C143,-160.5 179,-155.5 179,-155.5 179,-155.5 348.97,-139.57 392.79,-135.46"/>
<polygon fill="black" stroke="black" stroke-width="2" points="393.37,-138.92 403,-134.5 392.72,-131.95 393.37,-138.92"/>
</g>
<!-- spat -->
<g id="node10" class="node">
<title>spat</title>
<path fill="none" stroke="black" d="M731,-0.5C731,-0.5 882,-0.5 882,-0.5 888,-0.5 894,-6.5 894,-12.5 894,-12.5 894,-80.5 894,-80.5 894,-86.5 888,-92.5 882,-92.5 882,-92.5 731,-92.5 731,-92.5 725,-92.5 719,-86.5 719,-80.5 719,-80.5 719,-12.5 719,-12.5 719,-6.5 725,-0.5 731,-0.5"/>
<text text-anchor="middle" x="751" y="-42.8" font-family="Times,serif" font-size="14.00">INPUT</text>
<polyline fill="none" stroke="black" points="783,-0.5 783,-92.5 "/>
<text text-anchor="middle" x="809.5" y="-42.8" font-family="Times,serif" font-size="14.00">SPAT</text>
<polyline fill="none" stroke="black" points="836,-0.5 836,-92.5 "/>
<text text-anchor="middle" x="865" y="-77.3" font-family="Times,serif" font-size="14.00">OUT1</text>
<polyline fill="none" stroke="black" points="836,-69.5 894,-69.5 "/>
<text text-anchor="middle" x="865" y="-54.3" font-family="Times,serif" font-size="14.00">OUT2</text>
<polyline fill="none" stroke="black" points="836,-46.5 894,-46.5 "/>
<text text-anchor="middle" x="865" y="-31.3" font-family="Times,serif" font-size="14.00">OUT3</text>
<polyline fill="none" stroke="black" points="836,-23.5 894,-23.5 "/>
<text text-anchor="middle" x="865" y="-8.3" font-family="Times,serif" font-size="14.00">OUT4</text>
</g>
<!-- bass&#45;&gt;spat -->
<g id="edge24" class="edge">
<title>bass:e&#45;&gt;spat:w</title>
<path fill="none" stroke="black" stroke-width="2" d="M143,-160.5C143,-160.5 179,-133.5 179,-133.5 179,-133.5 632.78,-60.19 707.22,-48.16"/>
<polygon fill="black" stroke="black" stroke-width="2" points="708.19,-51.55 717.5,-46.5 707.07,-44.64 708.19,-51.55"/>
</g>
<!-- delayspat -->
<g id="node3" class="node">
<title>delayspat</title>
<path fill="none" stroke="black" d="M445.5,-241.5C445.5,-241.5 624.5,-241.5 624.5,-241.5 630.5,-241.5 636.5,-247.5 636.5,-253.5 636.5,-253.5 636.5,-275.5 636.5,-275.5 636.5,-281.5 630.5,-287.5 624.5,-287.5 624.5,-287.5 445.5,-287.5 445.5,-287.5 439.5,-287.5 433.5,-281.5 433.5,-275.5 433.5,-275.5 433.5,-253.5 433.5,-253.5 433.5,-247.5 439.5,-241.5 445.5,-241.5"/>
<text text-anchor="middle" x="455" y="-272.3" font-family="Times,serif" font-size="14.00">IN1</text>
<polyline fill="none" stroke="black" points="433.5,-264.5 476.5,-264.5 "/>
<text text-anchor="middle" x="455" y="-249.3" font-family="Times,serif" font-size="14.00">IN2</text>
<polyline fill="none" stroke="black" points="476.5,-241.5 476.5,-287.5 "/>
<text text-anchor="middle" x="527.5" y="-260.8" font-family="Times,serif" font-size="14.00">DELAYSPAT</text>
<polyline fill="none" stroke="black" points="578.5,-241.5 578.5,-287.5 "/>
<text text-anchor="middle" x="607.5" y="-272.3" font-family="Times,serif" font-size="14.00">OUT1</text>
<polyline fill="none" stroke="black" points="578.5,-264.5 636.5,-264.5 "/>
<text text-anchor="middle" x="607.5" y="-249.3" font-family="Times,serif" font-size="14.00">OUT2</text>
</g>
<!-- delay&#45;&gt;delayspat -->
<g id="edge13" class="edge">
<title>delay:e&#45;&gt;delayspat:w</title>
<path fill="none" stroke="black" stroke-width="2" d="M367,-276.5C367,-276.5 403.56,-276.5 421.84,-276.5"/>
<polygon fill="black" stroke="black" stroke-width="2" points="422,-280 432,-276.5 422,-273 422,-280"/>
</g>
<!-- delay&#45;&gt;delayspat -->
<g id="edge17" class="edge">
<title>delay:e&#45;&gt;delayspat:w</title>
<path fill="none" stroke="black" stroke-width="2" d="M367,-252.5C367,-252.5 403.56,-252.5 421.84,-252.5"/>
<polygon fill="black" stroke="black" stroke-width="2" points="422,-256 432,-252.5 422,-249 422,-256"/>
</g>
<!-- outputs -->
<g id="node8" class="node">
<title>outputs</title>
<path fill="none" stroke="black" d="M958,-97.5C958,-97.5 1070,-97.5 1070,-97.5 1076,-97.5 1082,-103.5 1082,-109.5 1082,-109.5 1082,-177.5 1082,-177.5 1082,-183.5 1076,-189.5 1070,-189.5 1070,-189.5 958,-189.5 958,-189.5 952,-189.5 946,-183.5 946,-177.5 946,-177.5 946,-109.5 946,-109.5 946,-103.5 952,-97.5 958,-97.5"/>
<text text-anchor="middle" x="959" y="-174.3" font-family="Times,serif" font-size="14.00">1</text>
<polyline fill="none" stroke="black" points="946,-166.5 972,-166.5 "/>
<text text-anchor="middle" x="959" y="-151.3" font-family="Times,serif" font-size="14.00">2</text>
<polyline fill="none" stroke="black" points="946,-143.5 972,-143.5 "/>
<text text-anchor="middle" x="959" y="-128.3" font-family="Times,serif" font-size="14.00">3</text>
<polyline fill="none" stroke="black" points="946,-120.5 972,-120.5 "/>
<text text-anchor="middle" x="959" y="-105.3" font-family="Times,serif" font-size="14.00">4</text>
<polyline fill="none" stroke="black" points="972,-97.5 972,-189.5 "/>
<text text-anchor="middle" x="1016.5" y="-139.8" font-family="Times,serif" font-size="14.00">OUTPUTS</text>
<polyline fill="none" stroke="black" points="1061,-97.5 1061,-189.5 "/>
<text text-anchor="middle" x="1071.5" y="-139.8" font-family="Times,serif" font-size="14.00"> </text>
</g>
<!-- delayspat&#45;&gt;outputs -->
<g id="edge1" class="edge">
<title>delayspat:e&#45;&gt;outputs:w</title>
<path fill="none" stroke="black" stroke-width="2" d="M638,-276.5C638,-276.5 703,-279.5 703,-279.5 703,-279.5 910,-279.5 910,-279.5 910,-279.5 933.54,-213.46 942.55,-188.18"/>
<polygon fill="black" stroke="black" stroke-width="2" points="945.94,-189.09 946,-178.5 939.35,-186.74 945.94,-189.09"/>
</g>
<!-- delayspat&#45;&gt;outputs -->
<g id="edge6" class="edge">
<title>delayspat:e&#45;&gt;outputs:w</title>
<path fill="none" stroke="black" stroke-width="2" d="M638,-252.5C638,-252.5 910,-246.5 910,-246.5 910,-246.5 933.09,-188.15 942.28,-164.9"/>
<polygon fill="black" stroke="black" stroke-width="2" points="945.58,-166.09 946,-155.5 939.07,-163.51 945.58,-166.09"/>
</g>
<!-- reverb -->
<g id="node9" class="node">
<title>reverb</title>
<path fill="none" stroke="black" d="M728.5,-176.5C728.5,-176.5 884.5,-176.5 884.5,-176.5 890.5,-176.5 896.5,-182.5 896.5,-188.5 896.5,-188.5 896.5,-210.5 896.5,-210.5 896.5,-216.5 890.5,-222.5 884.5,-222.5 884.5,-222.5 728.5,-222.5 728.5,-222.5 722.5,-222.5 716.5,-216.5 716.5,-210.5 716.5,-210.5 716.5,-188.5 716.5,-188.5 716.5,-182.5 722.5,-176.5 728.5,-176.5"/>
<text text-anchor="middle" x="738" y="-207.3" font-family="Times,serif" font-size="14.00">IN1</text>
<polyline fill="none" stroke="black" points="716.5,-199.5 759.5,-199.5 "/>
<text text-anchor="middle" x="738" y="-184.3" font-family="Times,serif" font-size="14.00">IN2</text>
<polyline fill="none" stroke="black" points="759.5,-176.5 759.5,-222.5 "/>
<text text-anchor="middle" x="799" y="-195.8" font-family="Times,serif" font-size="14.00">REVERB</text>
<polyline fill="none" stroke="black" points="838.5,-176.5 838.5,-222.5 "/>
<text text-anchor="middle" x="867.5" y="-207.3" font-family="Times,serif" font-size="14.00">OUT1</text>
<polyline fill="none" stroke="black" points="838.5,-199.5 896.5,-199.5 "/>
<text text-anchor="middle" x="867.5" y="-184.3" font-family="Times,serif" font-size="14.00">OUT2</text>
</g>
<!-- delayspat&#45;&gt;reverb -->
<g id="edge14" class="edge">
<title>delayspat:e&#45;&gt;reverb:w</title>
<path fill="none" stroke="black" stroke-width="2" d="M638,-276.5C638,-276.5 688.18,-234.41 707.79,-217.97"/>
<polygon fill="black" stroke="black" stroke-width="2" points="710.09,-220.61 715.5,-211.5 705.59,-215.24 710.09,-220.61"/>
</g>
<!-- delayspat&#45;&gt;reverb -->
<g id="edge18" class="edge">
<title>delayspat:e&#45;&gt;reverb:w</title>
<path fill="none" stroke="black" stroke-width="2" d="M638,-252.5C638,-252.5 667,-232.5 667,-232.5 667,-232.5 694.28,-207.19 707.92,-194.53"/>
<polygon fill="black" stroke="black" stroke-width="2" points="710.55,-196.87 715.5,-187.5 705.79,-191.74 710.55,-196.87"/>
</g>
<!-- harmspat -->
<g id="node5" class="node">
<title>harmspat</title>
<path fill="none" stroke="black" d="M436.5,-176.5C436.5,-176.5 633.5,-176.5 633.5,-176.5 639.5,-176.5 645.5,-182.5 645.5,-188.5 645.5,-188.5 645.5,-210.5 645.5,-210.5 645.5,-216.5 639.5,-222.5 633.5,-222.5 633.5,-222.5 436.5,-222.5 436.5,-222.5 430.5,-222.5 424.5,-216.5 424.5,-210.5 424.5,-210.5 424.5,-188.5 424.5,-188.5 424.5,-182.5 430.5,-176.5 436.5,-176.5"/>
<text text-anchor="middle" x="456.5" y="-195.8" font-family="Times,serif" font-size="14.00">INPUT</text>
<polyline fill="none" stroke="black" points="488.5,-176.5 488.5,-222.5 "/>
<text text-anchor="middle" x="538" y="-195.8" font-family="Times,serif" font-size="14.00">HARMSPAT</text>
<polyline fill="none" stroke="black" points="587.5,-176.5 587.5,-222.5 "/>
<text text-anchor="middle" x="616.5" y="-207.3" font-family="Times,serif" font-size="14.00">OUT1</text>
<polyline fill="none" stroke="black" points="587.5,-199.5 645.5,-199.5 "/>
<text text-anchor="middle" x="616.5" y="-184.3" font-family="Times,serif" font-size="14.00">OUT2</text>
</g>
<!-- harm&#45;&gt;harmspat -->
<g id="edge25" class="edge">
<title>harm:e&#45;&gt;harmspat:w</title>
<path fill="none" stroke="black" stroke-width="2" d="M367,-199.5C367,-199.5 396.88,-199.5 412.99,-199.5"/>
<polygon fill="black" stroke="black" stroke-width="2" points="413,-203 423,-199.5 413,-196 413,-203"/>
</g>
<!-- harm&#45;&gt;harmspat -->
<g id="edge26" class="edge">
<title>harm:e&#45;&gt;harmspat:w</title>
<path fill="none" stroke="black" stroke-width="2" d="M367,-175.5C367,-175.5 397.85,-188.72 413.75,-195.54"/>
<polygon fill="black" stroke="black" stroke-width="2" points="412.43,-198.78 423,-199.5 415.19,-192.34 412.43,-198.78"/>
</g>
<!-- harmspat&#45;&gt;outputs -->
<g id="edge2" class="edge">
<title>harmspat:e&#45;&gt;outputs:w</title>
<path fill="none" stroke="black" stroke-width="2" d="M647,-211.5C647,-211.5 703,-265.5 703,-265.5 703,-265.5 910,-265.5 910,-265.5 910,-265.5 932.86,-210.25 942.15,-187.81"/>
<polygon fill="black" stroke="black" stroke-width="2" points="945.41,-189.08 946,-178.5 938.94,-186.4 945.41,-189.08"/>
</g>
<!-- harmspat&#45;&gt;outputs -->
<g id="edge7" class="edge">
<title>harmspat:e&#45;&gt;outputs:w</title>
<path fill="none" stroke="black" stroke-width="2" d="M647,-187.5C647,-187.5 703,-232.5 703,-232.5 703,-232.5 910,-232.5 910,-232.5 910,-232.5 932.19,-185.03 941.73,-164.64"/>
<polygon fill="black" stroke="black" stroke-width="2" points="944.94,-166.04 946,-155.5 938.59,-163.08 944.94,-166.04"/>
</g>
<!-- harmspat&#45;&gt;reverb -->
<g id="edge15" class="edge">
<title>harmspat:e&#45;&gt;reverb:w</title>
<path fill="none" stroke="black" stroke-width="2" d="M647,-211.5C647,-211.5 686.34,-211.5 705.39,-211.5"/>
<polygon fill="black" stroke="black" stroke-width="2" points="705.5,-215 715.5,-211.5 705.5,-208 705.5,-215"/>
</g>
<!-- harmspat&#45;&gt;reverb -->
<g id="edge19" class="edge">
<title>harmspat:e&#45;&gt;reverb:w</title>
<path fill="none" stroke="black" stroke-width="2" d="M647,-187.5C647,-187.5 686.34,-187.5 705.39,-187.5"/>
<polygon fill="black" stroke="black" stroke-width="2" points="705.5,-191 715.5,-187.5 705.5,-184 705.5,-191"/>
</g>
<!-- infreverb -->
<g id="node6" class="node">
<title>infreverb</title>
<path fill="none" stroke="black" d="M715,-111.5C715,-111.5 898,-111.5 898,-111.5 904,-111.5 910,-117.5 910,-123.5 910,-123.5 910,-145.5 910,-145.5 910,-151.5 904,-157.5 898,-157.5 898,-157.5 715,-157.5 715,-157.5 709,-157.5 703,-151.5 703,-145.5 703,-145.5 703,-123.5 703,-123.5 703,-117.5 709,-111.5 715,-111.5"/>
<text text-anchor="middle" x="724.5" y="-142.3" font-family="Times,serif" font-size="14.00">IN1</text>
<polyline fill="none" stroke="black" points="703,-134.5 746,-134.5 "/>
<text text-anchor="middle" x="724.5" y="-119.3" font-family="Times,serif" font-size="14.00">IN2</text>
<polyline fill="none" stroke="black" points="746,-111.5 746,-157.5 "/>
<text text-anchor="middle" x="799" y="-130.8" font-family="Times,serif" font-size="14.00">INFREVERB</text>
<polyline fill="none" stroke="black" points="852,-111.5 852,-157.5 "/>
<text text-anchor="middle" x="881" y="-142.3" font-family="Times,serif" font-size="14.00">OUT1</text>
<polyline fill="none" stroke="black" points="852,-134.5 910,-134.5 "/>
<text text-anchor="middle" x="881" y="-119.3" font-family="Times,serif" font-size="14.00">OUT2</text>
</g>
<!-- infreverb&#45;&gt;outputs -->
<g id="edge3" class="edge">
<title>infreverb:e&#45;&gt;outputs:w</title>
<path fill="none" stroke="black" stroke-width="2" d="M910,-146.5C910,-146.5 927.8,-162.32 938.37,-171.71"/>
<polygon fill="black" stroke="black" stroke-width="2" points="936.2,-174.47 946,-178.5 940.85,-169.24 936.2,-174.47"/>
</g>
<!-- infreverb&#45;&gt;outputs -->
<g id="edge8" class="edge">
<title>infreverb:e&#45;&gt;outputs:w</title>
<path fill="none" stroke="black" stroke-width="2" d="M910,-122.5C910,-122.5 927.8,-138.81 938.37,-148.5"/>
<polygon fill="black" stroke="black" stroke-width="2" points="936.26,-151.32 946,-155.5 940.99,-146.16 936.26,-151.32"/>
</g>
<!-- infreverbspat&#45;&gt;infreverb -->
<g id="edge16" class="edge">
<title>infreverbspat:e&#45;&gt;infreverb:w</title>
<path fill="none" stroke="black" stroke-width="2" d="M667,-146.5C667,-146.5 682.14,-146.5 692.78,-146.5"/>
<polygon fill="black" stroke="black" stroke-width="2" points="693,-150 703,-146.5 693,-143 693,-150"/>
</g>
<!-- infreverbspat&#45;&gt;infreverb -->
<g id="edge20" class="edge">
<title>infreverbspat:e&#45;&gt;infreverb:w</title>
<path fill="none" stroke="black" stroke-width="2" d="M667,-122.5C667,-122.5 682.14,-122.5 692.78,-122.5"/>
<polygon fill="black" stroke="black" stroke-width="2" points="693,-126 703,-122.5 693,-119 693,-126"/>
</g>
<!-- reverb&#45;&gt;outputs -->
<g id="edge4" class="edge">
<title>reverb:e&#45;&gt;outputs:w</title>
<path fill="none" stroke="black" stroke-width="2" d="M897.5,-211.5C897.5,-211.5 923.66,-193.7 937.55,-184.25"/>
<polygon fill="black" stroke="black" stroke-width="2" points="939.7,-187.02 946,-178.5 935.76,-181.23 939.7,-187.02"/>
</g>
<!-- reverb&#45;&gt;outputs -->
<g id="edge9" class="edge">
<title>reverb:e&#45;&gt;outputs:w</title>
<path fill="none" stroke="black" stroke-width="2" d="M897.5,-187.5C897.5,-187.5 923.66,-170.24 937.55,-161.07"/>
<polygon fill="black" stroke="black" stroke-width="2" points="939.58,-163.93 946,-155.5 935.73,-158.09 939.58,-163.93"/>
</g>
<!-- spat&#45;&gt;outputs -->
<g id="edge5" class="edge">
<title>spat:e&#45;&gt;outputs:w</title>
<path fill="none" stroke="black" stroke-width="2" d="M895.5,-81.5C895.5,-81.5 910,-102.5 910,-102.5 910,-102.5 931.97,-148.89 941.59,-169.18"/>
<polygon fill="black" stroke="black" stroke-width="2" points="938.56,-170.96 946,-178.5 944.88,-167.96 938.56,-170.96"/>
</g>
<!-- spat&#45;&gt;outputs -->
<g id="edge10" class="edge">
<title>spat:e&#45;&gt;outputs:w</title>
<path fill="none" stroke="black" stroke-width="2" d="M895.5,-58.5C895.5,-58.5 928.84,-122.54 941.34,-146.55"/>
<polygon fill="black" stroke="black" stroke-width="2" points="938.28,-148.25 946,-155.5 944.49,-145.01 938.28,-148.25"/>
</g>
<!-- spat&#45;&gt;outputs -->
<g id="edge11" class="edge">
<title>spat:e&#45;&gt;outputs:w</title>
<path fill="none" stroke="black" stroke-width="2" d="M895.5,-34.5C895.5,-34.5 928.84,-98.54 941.34,-122.55"/>
<polygon fill="black" stroke="black" stroke-width="2" points="938.28,-124.25 946,-131.5 944.49,-121.01 938.28,-124.25"/>
</g>
<!-- spat&#45;&gt;outputs -->
<g id="edge12" class="edge">
<title>spat:e&#45;&gt;outputs:w</title>
<path fill="none" stroke="black" stroke-width="2" d="M895.5,-11.5C895.5,-11.5 928.84,-75.54 941.34,-99.55"/>
<polygon fill="black" stroke="black" stroke-width="2" points="938.28,-101.25 946,-108.5 944.49,-98.01 938.28,-101.25"/>
</g>
</g>
</svg>
